<svg width="56" height="49" viewBox="0 0 56 49" fill="none" xmlns="http://www.w3.org/2000/svg">
<g clip-path="url(#clip0_196_86)">
<path d="M25.6106 1.37499C26.6745 -0.452472 29.3256 -0.452472 30.3809 1.37499L43.0017 23.1338L55.6225 44.8926C56.6864 46.7201 55.3566 49.0087 53.2374 49.0087H28.0043H2.76272C0.643522 49.0087 -0.686339 46.7201 0.37755 44.8926L12.9984 23.1338L25.6106 1.37499Z" fill="#FFC600"/>
<path d="M25.0099 40.5714C24.315 39.8541 23.9461 38.8464 23.989 37.8558C24.0319 36.8908 24.4094 36.0967 25.1129 35.4647C25.8679 34.7816 26.8289 34.4485 28.0129 34.4485C29.1883 34.4485 30.1492 34.7901 30.8957 35.4647C31.582 36.0967 31.951 36.8908 32.0024 37.8473C32.0539 38.8976 31.6421 39.9565 30.8785 40.6909C30.1235 41.4083 29.1711 41.7669 28.0214 41.7669C26.786 41.7499 25.7821 41.357 25.0099 40.5714ZM27.1806 16.8229H28.8537C30.5525 16.8229 31.8909 18.2746 31.7451 19.9569L30.8957 29.8286C30.767 31.323 29.5143 32.4674 28.0043 32.4674C26.4942 32.4674 25.2416 31.3145 25.1129 29.8201L24.2893 19.9484C24.152 18.2661 25.4818 16.8229 27.1806 16.8229Z" fill="black"/>
</g>
<defs>
<clipPath id="clip0_196_86">
<rect width="56" height="49" fill="white"/>
</clipPath>
</defs>
</svg>
